<svg width="19" height="33" viewBox="0 0 19 33" fill="none" xmlns="http://www.w3.org/2000/svg">
<path d="M13.2583 0.911621C11.1628 0.911621 9.15314 1.74405 7.67141 3.22578C6.18968 4.70751 5.35725 6.71718 5.35725 8.81266V13.2116H1.12913C0.916841 13.2116 0.744751 13.3837 0.744751 13.596V19.4043C0.744751 19.6166 0.916841 19.7887 1.12913 19.7887H5.35725V31.7043C5.35725 31.9166 5.52934 32.0887 5.74162 32.0887H11.55C11.7622 32.0887 11.9343 31.9166 11.9343 31.7043V19.7887H16.1999C16.3763 19.7887 16.53 19.6687 16.5728 19.4976L18.0249 13.6892C18.0855 13.4466 17.9021 13.2116 17.652 13.2116H11.9343V8.81266C11.9343 8.46153 12.0738 8.12477 12.3221 7.87648C12.5704 7.62819 12.9072 7.4887 13.2583 7.4887H17.7C17.9122 7.4887 18.0843 7.31661 18.0843 7.10433V1.296C18.0843 1.08371 17.9122 0.911621 17.7 0.911621H13.2583Z" fill="white"/>
</svg>
