<svg width="34" height="35" viewBox="0 0 34 35" fill="none" xmlns="http://www.w3.org/2000/svg">
<path d="M1.06163 33.441C0.928209 33.9484 1.36929 34.4167 1.85531 34.2837L9.36841 32.2278C11.74 33.5736 14.4101 34.2885 17.1287 34.2885H17.1367C26.0826 34.2885 33.3749 26.6932 33.3749 17.3568C33.3749 12.8316 31.6888 8.5754 28.6236 5.37906C25.5583 2.18286 21.4846 0.416504 17.1366 0.416504C8.19079 0.416504 0.898438 8.01184 0.898438 17.3484C0.897422 20.3186 1.64577 23.2368 3.06836 25.81L1.06163 33.441ZM11.9901 9.24833C12.2885 9.25671 12.6192 9.27361 12.9339 10.0054C13.1426 10.4926 13.4941 11.3895 13.7805 12.1201L13.7805 12.1201C14.0034 12.6886 14.1867 13.1564 14.2326 13.2522C14.3375 13.4708 14.402 13.7232 14.2649 14.0175C14.2487 14.0522 14.2334 14.0854 14.2187 14.1174C14.1087 14.3565 14.0304 14.5267 13.8455 14.7493C13.7694 14.8408 13.6902 14.9411 13.6112 15.041C13.4724 15.2168 13.3344 15.3914 13.2162 15.5148C13.0065 15.7333 12.7886 15.969 13.0306 16.4063C13.2727 16.8437 14.1197 18.282 15.3701 19.4428C16.7143 20.6965 17.8832 21.2249 18.474 21.4919L18.4741 21.492C18.5888 21.5438 18.6817 21.5858 18.7499 21.6214C19.1694 21.84 19.4194 21.8064 19.6614 21.512C19.9035 21.2175 20.7101 20.2334 20.9925 19.7961C21.2668 19.3587 21.5491 19.426 21.9363 19.5774C22.3235 19.7288 24.3885 20.7886 24.808 21.0072C24.8909 21.0505 24.9684 21.0894 25.0403 21.1256C25.3321 21.2722 25.5305 21.3718 25.6146 21.5204C25.7195 21.7054 25.7195 22.5802 25.3727 23.6064C25.0178 24.6325 23.3076 25.6167 22.5332 25.6924C22.4599 25.6996 22.3869 25.7088 22.3119 25.7183L22.3118 25.7184C21.6021 25.8083 20.7012 25.9225 17.4915 24.5989C13.5365 22.9695 10.9257 18.927 10.3979 18.1097C10.3562 18.0451 10.3275 18.0007 10.3122 17.9792L10.3032 17.9666C10.0631 17.63 8.59394 15.5706 8.59394 13.4457C8.59394 11.4127 9.54988 10.3543 9.98591 9.87156C10.0135 9.84097 10.0391 9.81269 10.0622 9.78661C10.4493 9.34929 10.9011 9.23995 11.1834 9.23995C11.4658 9.23995 11.7481 9.23995 11.9901 9.24833Z" fill="white"/>
<path d="M1.06163 33.441C0.928209 33.9484 1.36929 34.4167 1.85531 34.2837L9.36841 32.2278C11.74 33.5736 14.4101 34.2885 17.1287 34.2885H17.1367C26.0826 34.2885 33.3749 26.6932 33.3749 17.3568C33.3749 12.8316 31.6888 8.5754 28.6236 5.37906C25.5583 2.18286 21.4846 0.416504 17.1366 0.416504C8.19079 0.416504 0.898438 8.01184 0.898438 17.3484C0.897422 20.3186 1.64577 23.2368 3.06836 25.81L1.06163 33.441ZM11.9901 9.24833C12.2885 9.25671 12.6192 9.27361 12.9339 10.0054C13.1426 10.4926 13.4941 11.3895 13.7805 12.1201L13.7805 12.1201C14.0034 12.6886 14.1867 13.1564 14.2326 13.2522C14.3375 13.4708 14.402 13.7232 14.2649 14.0175C14.2487 14.0522 14.2334 14.0854 14.2187 14.1174C14.1087 14.3565 14.0304 14.5267 13.8455 14.7493C13.7694 14.8408 13.6902 14.9411 13.6112 15.041C13.4724 15.2168 13.3344 15.3914 13.2162 15.5148C13.0065 15.7333 12.7886 15.969 13.0306 16.4063C13.2727 16.8437 14.1197 18.282 15.3701 19.4428C16.7143 20.6965 17.8832 21.2249 18.474 21.4919L18.4741 21.492C18.5888 21.5438 18.6817 21.5858 18.7499 21.6214C19.1694 21.84 19.4194 21.8064 19.6614 21.512C19.9035 21.2175 20.7101 20.2334 20.9925 19.7961C21.2668 19.3587 21.5491 19.426 21.9363 19.5774C22.3235 19.7288 24.3885 20.7886 24.808 21.0072C24.8909 21.0505 24.9684 21.0894 25.0403 21.1256C25.3321 21.2722 25.5305 21.3718 25.6146 21.5204C25.7195 21.7054 25.7195 22.5802 25.3727 23.6064C25.0178 24.6325 23.3076 25.6167 22.5332 25.6924C22.4599 25.6996 22.3869 25.7088 22.3119 25.7183L22.3118 25.7184C21.6021 25.8083 20.7012 25.9225 17.4915 24.5989C13.5365 22.9695 10.9257 18.927 10.3979 18.1097C10.3562 18.0451 10.3275 18.0007 10.3122 17.9792L10.3032 17.9666C10.0631 17.63 8.59394 15.5706 8.59394 13.4457C8.59394 11.4127 9.54988 10.3543 9.98591 9.87156C10.0135 9.84097 10.0391 9.81269 10.0622 9.78661C10.4493 9.34929 10.9011 9.23995 11.1834 9.23995C11.4658 9.23995 11.7481 9.23995 11.9901 9.24833Z" stroke="black"/>
</svg>
