<svg width="36" height="25" viewBox="0 0 36 25" fill="none" xmlns="http://www.w3.org/2000/svg">
<path fill-rule="evenodd" clip-rule="evenodd" d="M9.2575 0.354872C14.9559 -0.0909471 20.6805 -0.0909468 26.3789 0.354872L30.2068 0.654346C32.3389 0.821154 34.0832 2.41912 34.4356 4.52852C35.3175 9.80641 35.3175 15.1941 34.4356 20.4719C34.0832 22.5813 32.3389 24.1793 30.2068 24.3461L26.3789 24.6456C20.6805 25.0914 14.9559 25.0914 9.2575 24.6456L5.42964 24.3461C3.29751 24.1793 1.55327 22.5813 1.20082 20.4719C0.318965 15.1941 0.318965 9.80641 1.20082 4.52852C1.55327 2.41912 3.29751 0.821154 5.42964 0.654346L9.2575 0.354872ZM14.4015 16.7201V8.28041C14.4015 7.88204 14.8361 7.63599 15.1777 7.84094L22.2107 12.0608C22.5425 12.2598 22.5425 12.7406 22.2107 12.9397L15.1777 17.1595C14.8361 17.3645 14.4015 17.1184 14.4015 16.7201Z" fill="white"/>
</svg>
